# xmcd
#
# Track frame offsets:
#	150
#	24444
#	39687
#	58410
#	73635
#	94435
#	108762
#	125875
#	140402
#	158217
#	181515
#	199084
#	223170
#	239195
#	259772
#	272235
#
# Disc length: 3863
#
# Revision: 1
# Processed by: cddbd v1.5.1PL0 Copyright (c) Steve Scherf et al.
# Submitted via: CDex 1.51
# Normalized: r0:DSETVAR1,TDELIM( - )
#
DISCID=fc0f1510
DTITLE=Various Artist - TOP and TOP
DYEAR=2001
DGENRE=Pop
TTITLE0=H.O.T. - Outside castle
TTITLE1=Backstreet Boys - The call
TTITLE2=S.E.S. - Love
TTITLE3=Britney Spears - Stronger
TTITLE4=Shinhwa - T.O.P
TTITLE5=Nsync - It's gonna be me
TTITLE6=BoA - サラ
TTITLE7=Aaron Carter - I want candy
TTITLE8=Fly to the sky - Day by day
TTITLE9=Joe - I wanna know
TTITLE10=Yoo Young Jin - あなたの香り
TTITLE11=R.Kenny - I believe I can fly
TTITLE12=H.O.T. - Candy
TTITLE13=Steps - After the love has gone
TTITLE14=H.O.T. - Go H.O.T.(remix)
TTITLE15=Backstreet Boys - The call (remix)
EXTD=YEAR: 2001
EXTT0=
EXTT1=
EXTT2=
EXTT3=
EXTT4=
EXTT5=
EXTT6=
EXTT7=
EXTT8=
EXTT9=
EXTT10=
EXTT11=
EXTT12=
EXTT13=
EXTT14=
EXTT15=
PLAYORDER=
